<?xml version="1.0" encoding="UTF-8"?>
<svg version="1.1" xmlns="http://www.w3.org/2000/svg" width="798" height="216">
<path d="M0 0 C263.34 0 526.68 0 798 0 C798 71.28 798 142.56 798 216 C534.66 216 271.32 216 0 216 C0 144.72 0 73.44 0 0 Z " fill="#FEFEFE" transform="translate(0,0)"/>
<path d="M0 0 C7.62275351 3.33495466 11.33097197 11.13029532 14.49609375 18.46875 C16.11153933 22.60594643 17.55391941 26.80132854 19 31 C19.71664006 33.04715798 20.43414098 35.09401474 21.15234375 37.140625 C23.11768176 42.75489326 25.0645039 48.37538032 27 54 C27.01458252 53.10394043 27.02916504 52.20788086 27.04418945 51.28466797 C27.1060621 47.88844975 27.18034992 44.49293555 27.26245117 41.09716797 C27.29525027 39.64088804 27.32341429 38.18449466 27.34643555 36.72802734 C27.77740651 10.15454104 27.77740651 10.15454104 35 2 C37.88861709 0.55569145 39.79647701 0.62311494 43 1 C49.76201058 6.15200806 52.49214656 13.9884056 53.75 22.125 C53.93212036 23.27029175 53.93212036 23.27029175 54.11791992 24.4387207 C56.71580674 42.6531798 54.88601886 60.62049752 51.0625 78.5 C50.90491211 79.24217773 50.74732422 79.98435547 50.58496094 80.74902344 C49.1584371 87.06403578 47.36206833 92.96384231 42.9375 97.875 C42.43089844 98.44992188 41.92429687 99.02484375 41.40234375 99.6171875 C39.22534836 101.76386262 37.96343461 102.00438785 34.875 102.375 C29.76229875 101.88022246 26.8815817 100.28052636 23 97 C18.17283187 90.99964277 14.96978802 84.1248833 11.875 77.125 C11.45863281 76.20847656 11.04226562 75.29195313 10.61328125 74.34765625 C7.7658681 68.00122757 5.29264856 61.5661073 3 55 C2.98018066 55.65371582 2.96036133 56.30743164 2.93994141 56.98095703 C1.80412354 92.66822886 1.80412354 92.66822886 -4 99 C-7.76499581 101.5099972 -9.54293606 101.61476744 -14 101 C-23.2173362 91.7826638 -24.34720645 79.92859655 -24.46801758 67.37109375 C-24.45794678 66.15550781 -24.44787598 64.93992187 -24.4375 63.6875 C-24.43065186 62.39585938 -24.42380371 61.10421875 -24.41674805 59.7734375 C-24.11041655 41.06771189 -22.83980388 16.86714133 -10 2 C-6.24543433 -0.50304378 -4.45254066 -0.45280074 0 0 Z " fill="#04D3AC" transform="translate(63,49)"/>
<path d="M0 0 C3.34212311 2.2787203 5.31708547 4.65496607 7.75 7.875 C8.265625 7.070625 8.78125 6.26625 9.3125 5.4375 C12.38205757 2.21052922 14.39868459 2.12603743 18.75 1.875 C23.95723877 8.92996866 23.91184385 15.23625006 23.953125 23.6796875 C23.96013931 24.62790878 23.96715363 25.57613007 23.97438049 26.55308533 C23.99189226 29.61877167 23.99823765 32.6842654 24 35.75 C24.00067474 36.79110931 24.00134949 37.83221863 24.00204468 38.90487671 C23.94426247 94.82779193 23.94426247 94.82779193 8.1640625 112.66796875 C2.03569531 118.49423333 -5.25556275 121.06708232 -13.625 121.4375 C-22.66218643 121.14907916 -30.4874138 117.83583629 -37.25 111.875 C-39.56905398 108.39641903 -40.25 106.44945182 -40.25 102.25 C-39.25 98.875 -39.25 98.875 -37.1875 96.375 C-33.30261714 94.39123003 -30.32218643 94.73948647 -26.25 95.875 C-25.13625 96.41125 -24.0225 96.9475 -22.875 97.5 C-18.0259037 99.33931239 -14.20819257 99.43211833 -9.25 97.875 C-2.54250707 93.55588941 -1.10260085 85.12193863 0.75 77.875 C0.42 77.545 0.09 77.215 -0.25 76.875 C-0.971875 77.37 -1.69375 77.865 -2.4375 78.375 C-8.15325088 81.21251053 -15.69070855 80.93255305 -21.6953125 79.1484375 C-29.81805197 75.34958976 -33.95415603 68.9878467 -37.25 60.875 C-41.50155815 45.0796542 -37.21012186 28.08120344 -29.6171875 14.05078125 C-22.84195503 3.26848272 -13.04087035 -4.51414743 0 0 Z " fill="#CB6EE6" transform="translate(519.25,71.125)"/>
<path d="M0 0 C3.93169475 3.05798481 5.32577836 5.15270126 6 10 C6.08947582 11.83162259 6.13015112 13.66620048 6.125 15.5 C6.12886719 16.87671875 6.12886719 16.87671875 6.1328125 18.28125 C6.00244035 20.95004454 5.59378606 23.39865153 5 26 C5.72445312 25.96519531 6.44890625 25.93039063 7.1953125 25.89453125 C12.9285449 25.73400074 17.04323703 25.73897173 22 29 C23 30 23 30 23.3125 32.8125 C23 36 23 36 21.4375 38.1875 C16.89353734 41.56634403 12.819936 43.0369082 7.26171875 43.58203125 C6.46080811 43.66300049 5.65989746 43.74396973 4.8347168 43.82739258 C3.92653198 43.91283325 3.92653198 43.91283325 3 44 C2.6233416 50.99823293 2.28896841 57.99758557 2 65 C1.95262695 66.12462646 1.95262695 66.12462646 1.90429688 67.27197266 C1.83341621 69.15985186 1.79057516 71.04872643 1.75 72.9375 C1.72421875 73.97777344 1.6984375 75.01804687 1.671875 76.08984375 C2.06809603 79.60394695 3.18914789 81.98044806 5 85 C8.5885765 86.79428825 12.89715874 85.83569094 16.8359375 85.64453125 C20 86 20 86 22.375 87.734375 C24.64942834 90.90545297 24.69096416 93.00513533 24.515625 96.8125 C24 99 24 99 21.375 101.9375 C13.58602592 106.69742861 5.92827091 106.75264665 -3 106 C-9.34068396 104.44356991 -13.43684968 101.55432255 -17 96 C-20.55125991 88.07399962 -20.39443096 80.32286778 -20.28125 71.80688477 C-20.25002578 69.43945465 -20.2402591 67.07269421 -20.234375 64.70507812 C-20.22520436 63.17707535 -20.21482839 61.64907923 -20.203125 60.12109375 C-20.19887512 59.42503525 -20.19462524 58.72897675 -20.19024658 58.01182556 C-20.12228042 53.26448884 -19.65489717 48.69353909 -19 44 C-19.60328125 44.01160156 -20.2065625 44.02320313 -20.828125 44.03515625 C-22.02695313 44.04869141 -22.02695313 44.04869141 -23.25 44.0625 C-24.43335938 44.07990234 -24.43335938 44.07990234 -25.640625 44.09765625 C-27.91397859 44.00356049 -29.81129768 43.58351934 -32 43 C-34.40484509 46.71070184 -36.76835053 50.44603841 -39.125 54.1875 C-39.80949219 55.24259766 -40.49398437 56.29769531 -41.19921875 57.38476562 C-42.15634766 58.91713867 -42.15634766 58.91713867 -43.1328125 60.48046875 C-43.72980957 61.41785889 -44.32680664 62.35524902 -44.94189453 63.32104492 C-46.29031925 65.9577376 -46.29031925 65.9577376 -45.29858398 68.62744141 C-43.54339866 71.83422669 -41.78131606 75.03091328 -39.9375 78.1875 C-34.83719995 86.98890274 -34.83719995 86.98890274 -34.75 91.9375 C-34.72421875 92.81277344 -34.6984375 93.68804687 -34.671875 94.58984375 C-35 97 -35 97 -36.33984375 98.7890625 C-38.98122322 100.71571576 -40.8139182 100.43730535 -44 100 C-49.18952443 97.23961467 -52.96955509 93.18713607 -57 89 C-58.66427031 87.33094042 -60.3304819 85.66381035 -62 84 C-62.70125 84.80824219 -63.4025 85.61648437 -64.125 86.44921875 C-75.18747995 99.00117982 -75.18747995 99.00117982 -81 101 C-84.875 101 -84.875 101 -88 100 C-90.25868853 96.61196721 -90.33794156 94.83667431 -89.8046875 90.86328125 C-87.54168655 82.81095263 -82.61965634 75.25302844 -77.875 68.4375 C-75.61301434 65.21415391 -75.61301434 65.21415391 -76.6953125 62.22265625 C-78.08398054 58.79256304 -79.51359875 55.38899485 -81 52 C-86.28295888 39.95485375 -86.28295888 39.95485375 -86.3125 34.3125 C-86.32925781 33.56613281 -86.34601563 32.81976563 -86.36328125 32.05078125 C-85.90082866 29.44016177 -85.09590028 28.58411068 -83 27 C-79.52805599 26.31922666 -77.19294029 26.34149696 -74.046875 28.078125 C-67.38657493 33.27001246 -63.8296841 40.65637703 -60 48 C-59.45085937 47.29875 -58.90171875 46.5975 -58.3359375 45.875 C-55.85897953 42.82643635 -53.27345376 39.8985855 -50.625 37 C-50.16867188 36.49210937 -49.71234375 35.98421875 -49.2421875 35.4609375 C-41.09140934 26.53171424 -41.09140934 26.53171424 -35.3125 25.0625 C-32 25 -32 25 -29 27 C-29 27.66 -29 28.32 -29 29 C-28.40832031 28.7834375 -27.81664062 28.566875 -27.20703125 28.34375 C-26.41683594 28.0653125 -25.62664062 27.786875 -24.8125 27.5 C-24.03519531 27.2215625 -23.25789063 26.943125 -22.45703125 26.65625 C-19.86777221 25.9646832 -17.66742762 25.88629083 -15 26 C-15.05220703 24.96552734 -15.05220703 24.96552734 -15.10546875 23.91015625 C-15.33449802 15.95956877 -14.50263145 9.6401912 -9.9375 3 C-6.76961941 -0.27007029 -4.49063148 -0.52830959 0 0 Z " fill="#03D3AC" transform="translate(274,49)"/>
<path d="M0 0 C9.17306317 5.23137068 13.07067217 15.4107897 15.8125 25.125 C17.42646355 31.58085419 18.72372319 38.08289241 19.9375 44.625 C20.10451416 45.5231543 20.27152832 46.42130859 20.44360352 47.34667969 C26.73521749 82.74550826 26.73521749 82.74550826 18.75 96.375 C16.04616894 99.43459831 14.74184869 100.20969189 10.75 100.875 C6.91567077 100.23594513 5.42267921 99.19214836 2.75 96.375 C-0.73175969 89.53582918 -1.40052366 83.63930572 -1.3125 76.0625 C-1.30798828 75.32193359 -1.30347656 74.58136719 -1.29882812 73.81835938 C-1.28712175 72.00387101 -1.26918898 70.18942466 -1.25 68.375 C-2.19101562 68.5915625 -3.13203125 68.808125 -4.1015625 69.03125 C-5.34679687 69.3096875 -6.59203125 69.588125 -7.875 69.875 C-9.10476563 70.1534375 -10.33453125 70.431875 -11.6015625 70.71875 C-14.92152228 71.31591621 -17.88908451 71.49909534 -21.25 71.375 C-21.27126953 72.35726562 -21.27126953 72.35726562 -21.29296875 73.359375 C-21.74187181 81.94919568 -23.61907761 91.50599598 -30.1875 97.625 C-33.65629122 99.60716641 -35.33190017 100.14158475 -39.25 99.375 C-42.62030896 96.84726828 -43.91409618 94.30240733 -45.25 90.375 C-48.50218644 63.22766523 -42.08748672 28.119266 -24.86328125 6.1328125 C-18.1683779 -1.16187638 -9.28273311 -4.24504493 0 0 Z " fill="#4A77EE" transform="translate(677.25,51.625)"/>
<path d="M0 0 C7.79976735 4.67013097 12.94925336 12.02252062 15.90625 20.50390625 C19.929794 36.73639159 17.2422259 55.30678144 8.75 69.5625 C4.9298645 75.34727661 0.25317207 78.39169682 -6.25 80.5625 C-13.40468456 81.70526212 -19.32590708 80.77238731 -25.25 76.5625 C-32.83881549 70.91125442 -37.34015561 61.73523688 -39.25 52.5625 C-40.46124043 36.41875346 -40.24344886 20.46785301 -29.25 7.5625 C-21.25136449 -0.62470845 -11.30743241 -4.9036192 0 0 Z " fill="#CB6EE6" transform="translate(590.25,73.4375)"/>
<path d="M0 0 C4.31361259 0.98853622 5.6050283 3.06082856 8 6.6875 C8.8125 9.5625 8.8125 9.5625 9 11.6875 C9.66 11.6875 10.32 11.6875 11 11.6875 C11.24878906 11.08421875 11.49757813 10.4809375 11.75390625 9.859375 C14.03381363 5.88561794 17.81486968 4.25847622 22 2.6875 C28.25452398 1.6509854 33.82874101 2.21661543 39.34765625 5.421875 C43.74790459 8.79227799 45.66297826 13.47538136 47 18.6875 C48.65412778 38.64199987 48.04145227 63.38603767 36.06640625 80.44140625 C34 82.6875 34 82.6875 30.4375 83.6875 C27 83.6875 27 83.6875 25.1875 82.75 C20.00491349 73.74866554 21.54013596 62.24987188 23 52.4375 C23.8347847 46.71922479 24.22060361 41.15384025 24.25 35.375 C24.25902344 34.63926758 24.26804687 33.90353516 24.27734375 33.14550781 C24.38116261 28.9583555 24.38116261 28.9583555 22 25.6875 C19.39146804 25.87638246 18.30921127 26.34907111 16.53759766 28.28808594 C12.54289356 35.11517116 12.32277317 41.14699841 12.375 48.9375 C12.375 72.67872489 12.375 72.67872489 5 80.6875 C2.15916359 82.10791821 0.14522722 82.00202272 -3 81.6875 C-8.25085877 77.46687617 -8.93555254 72.06800191 -10 65.6875 C-10.36318621 61.50505178 -10.39921771 57.36424292 -10.36328125 53.16796875 C-10.36377975 52.02515945 -10.36427826 50.88235016 -10.36479187 49.70491028 C-10.36246913 47.31082401 -10.35284842 44.91673446 -10.33618164 42.52270508 C-10.31244889 38.86712812 -10.31565242 35.21227586 -10.32226562 31.55664062 C-10.31669213 29.21874568 -10.30958433 26.88085377 -10.30078125 24.54296875 C-10.30169266 23.4574321 -10.30260406 22.37189545 -10.30354309 21.25346375 C-10.23835022 14.26474004 -10.13802371 8.47880873 -5.75 2.75 C-3 0.6875 -3 0.6875 0 0 Z " fill="#CB6EE6" transform="translate(427,69.3125)"/>
<path d="M0 0 C5.19375509 3.09204487 9.02102053 7.78020872 12.0625 12.9375 C13.79480705 20.82912099 12.52893841 27.4462931 8.625 34.5 C3.21425239 42.56409499 -4.39511454 47.89419813 -13.921875 50.0859375 C-16.125 50.375 -16.125 50.375 -19.375 50.5 C-17.50933512 54.12793998 -17.50933512 54.12793998 -14.375 56.5 C-8.10272413 56.5 -4.56840042 55.2290666 0.75 51.875 C7.069218 47.94661989 7.069218 47.94661989 10.6875 48.375 C13.58856341 49.48604556 14.7550313 50.10444838 16.625 52.5 C17.32611787 57.36940768 15.90132578 61.65771553 13.125 65.625 C6.64380859 73.37458686 -0.76022614 78.41391847 -10.8125 79.84765625 C-18.48072961 80.31493899 -24.50540542 77.74892694 -30.34765625 72.84375 C-39.8158232 63.02182736 -42.68753769 50.70303774 -42.5234375 37.4765625 C-41.85509551 24.07454686 -36.13041871 12.6016164 -26.375 3.5 C-19.14274462 -2.38889909 -8.6633464 -3.86361421 0 0 Z " fill="#03D3AC" transform="translate(166.375,70.5)"/>
<path d="M0 0 C0.63481467 4.84046189 0.8061853 6.87622655 -2.0625 10.875 C-5.46960009 13.3397107 -7.92564194 14.12121689 -12 15 C-11.97498413 15.81041748 -11.97498413 15.81041748 -11.94946289 16.63720703 C-11.80048747 26.09575832 -12.55105802 35.49939426 -13.22680664 44.92675781 C-13.43845211 47.88832295 -13.64247086 50.85034687 -13.84570312 53.8125 C-13.97871534 55.70576093 -14.11216335 57.5989913 -14.24609375 59.4921875 C-14.33678383 60.81257523 -14.33678383 60.81257523 -14.42930603 62.15963745 C-14.72159049 66.17948729 -15.06521852 70.0663589 -16 74 C-14.948125 74.0825 -13.89625 74.165 -12.8125 74.25 C-8.58617234 75.08140872 -6.77918777 75.71550536 -4 79 C-3.34114174 82.40410101 -3.06908096 83.8275259 -4 87 C-8.90413416 94.25679312 -18.75844717 96.16559617 -26.8125 97.75 C-28.20612915 97.86442429 -29.60290576 97.94149522 -31 98 C-32.19238281 98.06316406 -33.38476562 98.12632812 -34.61328125 98.19140625 C-35.95041087 98.23526266 -37.28766061 98.27559002 -38.625 98.3125 C-39.87539063 98.34988281 -41.12578125 98.38726562 -42.4140625 98.42578125 C-46.64939865 97.92289275 -48.7630085 96.73824055 -52 94 C-52.81219691 90.412797 -52.74031718 88.28841166 -50.88671875 85.0625 C-47.43856375 80.60127521 -44.50418651 78.99075357 -39 78 C-38.75820868 75.14480467 -38.51956404 72.28940696 -38.28515625 69.43359375 C-38.11316476 67.3626277 -37.9352854 65.29212187 -37.74609375 63.22265625 C-36.97382011 54.28634701 -36.67800001 45.3400093 -36.39257812 36.37646484 C-36.18208141 30.19912472 -35.77629257 24.1327113 -35 18 C-35.6295459 18.0414917 -36.2590918 18.0829834 -36.90771484 18.12573242 C-41.04822948 18.35778725 -43.65166424 18.15550704 -47.5 16.4375 C-50 14 -50 14 -51.1875 10.625 C-50.99178902 6.84125447 -50.34979339 5.06741126 -47.6953125 2.34765625 C-35.51262127 -7.33674116 -12.8145193 -8.54301286 0 0 Z " fill="#4A77EE" transform="translate(755,55)"/>
<path d="M0 0 C4.99519908 4.65461732 6.73942357 9.41443719 7.24050903 16.30943298 C7.2338472 18.01819359 7.2338472 18.01819359 7.22705078 19.76147461 C7.22689972 21.06229477 7.22674866 22.36311493 7.22659302 23.70335388 C7.21638281 25.10301877 7.20595087 26.50268205 7.1953125 27.90234375 C7.19157733 29.34965315 7.18873274 30.79696511 7.18673706 32.24427795 C7.17914024 36.03365187 7.15952625 39.82286985 7.1373291 43.61218262 C7.11678503 47.48687634 7.10771712 51.36159551 7.09765625 55.23632812 C7.07627617 62.82428945 7.04218862 70.41212279 7 78 C8.32064453 77.58427734 8.32064453 77.58427734 9.66796875 77.16015625 C11.41013672 76.61681641 11.41013672 76.61681641 13.1875 76.0625 C14.33605469 75.70285156 15.48460937 75.34320313 16.66796875 74.97265625 C22.02055427 73.41017818 26.85276091 72.79435805 32.4375 72.6875 C33.71496094 72.65011719 34.99242187 72.61273438 36.30859375 72.57421875 C40.62181016 73.07172202 42.7324261 74.17439278 46 77 C46.86207181 81.85895018 46.65120607 83.83713201 44.25 88.125 C33.70539408 98.93322107 12.8933029 102.98332607 -1.625 103.3125 C-2.71039063 103.34988281 -3.79578125 103.38726562 -4.9140625 103.42578125 C-8.78644552 102.89149043 -10.32605973 101.82538467 -13 99 C-21.73702884 77.84050471 -19.1781127 48.46364729 -16.25 26.5 C-16.01482666 24.70308716 -16.01482666 24.70308716 -15.77490234 22.86987305 C-13.28360792 5.92644355 -13.28360792 5.92644355 -8.05175781 1.26367188 C-5.093954 -0.55803118 -3.40918348 -0.62617656 0 0 Z " fill="#CB6EE6" transform="translate(335,50)"/>
<path d="M0 0 C5.06954824 4.05563859 5.92389241 10.90918907 7 17 C7.33516157 21.5914434 7.39244105 26.15355784 7.33618164 30.75317383 C7.3126432 32.80004763 7.31564111 34.84560322 7.32226562 36.89257812 C7.26276727 65.65744527 7.26276727 65.65744527 -0.8125 75.125 C-4.37017817 76.54807127 -6.39237713 76.2240149 -10 75 C-17.57372973 64.7652301 -16.20444481 49.56669527 -16.3125 37.4375 C-16.33022461 36.23134033 -16.34794922 35.02518066 -16.36621094 33.7824707 C-16.35711399 22.60763422 -15.70326057 9.82188587 -8 1 C-5.12529507 -0.43735246 -3.18105412 -0.38172649 0 0 Z " fill="#CC6FE6" transform="translate(401,74)"/>
<path d="M0 0 C3.5 0.875 3.5 0.875 5.3125 2.625 C8.85239804 9.33217523 10.44279236 16.69388884 9.06640625 24.2578125 C7.27811356 29.57217383 4.20932788 33.09700358 -0.5 36.1875 C-3.11063433 37.08490555 -4.75955407 37.35457804 -7.5 36.875 C-12.86476427 31.3612145 -12.88000119 25.79274102 -12.96411133 18.50756836 C-12.84104482 11.8157381 -11.04100286 6.92424162 -6.5 1.875 C-3.5 -0.125 -3.5 -0.125 0 0 Z " fill="#FDFBFE" transform="translate(513.5,94.125)"/>
<path d="M0 0 C3.31603826 1.3264153 4.01444138 2.80604896 5.5 6 C6.96387348 10.83516079 6.76305124 15.73919188 6.8125 20.75 C6.84150391 21.71421875 6.87050781 22.6784375 6.90039062 23.671875 C6.95827615 30.22629756 6.05896455 34.4451733 2.5 40 C-0.25 41 -0.25 41 -2.5 41 C-8.28194045 34.44713416 -8.84354695 28.46380466 -8.8125 20.0625 C-8.82861328 19.19431641 -8.84472656 18.32613281 -8.86132812 17.43164062 C-8.86619188 10.99689924 -7.82921315 6.38794641 -4.125 1 C-2.5 0 -2.5 0 0 0 Z " fill="#FDFBFE" transform="translate(580.5,93)"/>
<path d="M0 0 C1.8125 0.1875 1.8125 0.1875 4 1 C8.26443511 6.52797144 8.1260723 12.63633592 8.0625 19.375 C8.05347656 20.62023437 8.04445313 21.86546875 8.03515625 23.1484375 C8.02355469 24.08945313 8.01195312 25.03046875 8 26 C4.49243253 26.80263256 1.28268248 27.11043577 -2.3125 27.0625 C-3.19550781 27.05347656 -4.07851563 27.04445313 -4.98828125 27.03515625 C-5.65214844 27.02355469 -6.31601562 27.01195313 -7 27 C-7.49066303 17.35029374 -6.65442466 7.42435809 0 0 Z " fill="#F8FAFE" transform="translate(666,75)"/>
<path d="M0 0 C2.4375 1.1875 2.4375 1.1875 4 3 C4.5625 5.375 4.5625 5.375 4 8 C1.93957515 10.92447399 0.2701905 12.6089983 -3.1953125 13.67578125 C-7.05634499 14.30654398 -9.20590617 14.4726749 -12.625 12.4375 C-14 10 -14 10 -14.125 7 C-11.70244689 0.53985836 -6.43085896 -0.83362986 0 0 Z " fill="#CD72E6" transform="translate(403,51)"/>
<path d="M0 0 C2.1610211 3.24153166 2.64247553 4.23692901 2 8 C-1.96383098 12.49234177 -7.39816758 13.56419052 -13 15 C-12.56509678 9.56370977 -11.3898616 6.2871779 -8 2 C-4.79191085 -0.1387261 -3.72301503 -0.47730962 0 0 Z " fill="#F0FCFA" transform="translate(159,88)"/>
</svg>
